<svg width="288" height="289" viewBox="0 0 288 289" fill="none" xmlns="http://www.w3.org/2000/svg">
<g clip-path="url(#clip0_1903_2)">
<mask id="mask0_1903_2" style="mask-type:luminance" maskUnits="userSpaceOnUse" x="0" y="0" width="288" height="289">
<path d="M288 0H0V289H288V0Z" fill="white"/>
</mask>
<g mask="url(#mask0_1903_2)">
<path d="M150.8 68.2C153.8 64.3 157 60.1 162.5 54.7C165.4 51.9 174.4 45.9 177.8 44.7C180.4 43.8 185.4 57.5 185.4 66C185.4 74 182.5 97.7 182.5 97.7L150.8 68.2Z" fill="url(#paint0_linear_1903_2)"/>
<path opacity="0.2" d="M157.2 76.4C162.9 75.6 171.1 64.8 176.5 59.3C181.9 53.8 182.5 62.3 181.6 73.2C181.1 78.6 179.9 84.9 178.2 87.9C177.6 88.9 176.1 88.9 175.4 88C171.6 83.4 164.4 78.3 157.2 76.4Z" fill="white"/>
<path d="M189.5 223C187.4 224.4 185.2 225.7 183 227C161.4 239.4 136.6 244.2 112.5 241.6C91 239.3 70.1 231 52.4 216.8C57.4 208.3 61.3 201.5 63 197.6C70 181.5 73.7 179.3 74.1 165.3C74.6 151.3 68 135.2 66.3 120.9C77.7 115.5 176.1 148.1 176.1 148.1C166.6 167.6 182.4 182.7 186.1 191.6C190.7 202.1 190.7 212.6 189.5 223Z" fill="url(#paint1_linear_1903_2)"/>
<path d="M194.2 120.6C196.3 121.7 197.6 124.4 197.6 124.4C197.6 124.4 197.4 114.4 192 106.5C186.4 98.4 182.2 95.8 177.2 86.1C172 76.1 160.2 64 144 62.8C127.8 61.5 89.1001 59.4 75.1001 84.2C71.0001 91.5 68.5001 98.4 67.2001 104.9C62.1001 113.2 58.2001 128.6 58.4001 133.1C60.9001 130 64.6001 127.6 64.6001 127.6C64.6001 127.6 62.4001 141.4 63.0001 148.7C66.3001 144.7 70.0001 142.4 72.5001 141.1C79.2001 153 103.3 170.3 137.2 166.5C164.8 163.4 177.2 159.2 182.9 150.1C184.8 147.1 186.8 143.3 188.5 139.4C189.5 140.3 191.6 142.6 193.3 147C194.8 139.7 192.9 132.2 192.9 132.2C192.9 132.2 195.6 134.9 197 136.5C197.2 130 196.7 126 194.2 120.6Z" fill="url(#paint2_linear_1903_2)"/>
<path opacity="0.3" d="M115.7 94.7C119.4 89.9 126.8 86.2 133.3 92.3C135.4 94.3 131.9 110.5 115.7 94.7Z" fill="black"/>
<path opacity="0.3" d="M177.4 93C174.3 88.7 168.7 85.7 163.5 91.1C161.1 93.7 167.7 107.8 177.4 93Z" fill="black"/>
<path d="M162.1 103.3C152.9 102.9 147.9 103.1 148.7 108.2C149.4 112.4 158.9 117.2 162.2 115.4C167.2 112.6 169.9 103.6 162.1 103.3Z" fill="white"/>
<path opacity="0.1" d="M158.6 114.4C149.5 111.8 131.7 109.2 126.2 119.1C122.1 126.5 124.2 134 130.5 139.5C137.2 145.3 147.8 151 158.4 151.9C173.1 153.2 179.3 147.8 183.1 141.9C188.9 133.1 191.6 118.5 180.3 114.3C173.9 111.9 164.9 113.1 158.6 114.4Z" fill="white"/>
<path opacity="0.1" d="M183 226.9C161.4 239.3 136.6 244.1 112.5 241.5C108.5 229.8 107.7 215.5 111.4 201.3C117.7 177.1 138.4 182.6 149 188.6C156.4 185.2 166.8 181.8 174.3 187.2C182.7 193.4 184.5 210.1 183 226.9Z" fill="white"/>
<path opacity="0.2" d="M149.6 129.9C147.2 129.9 144.4 129.4 141.5 128.4C141.1 128.3 141 127.9 141.1 127.5C141.2 127.1 141.6 126.9 142 127.1C147.6 129 152.1 129 155.5 127.2C159.4 125.1 160.3 121.2 160.3 121.2C160.4 120.9 160.6 120.7 160.9 120.7C161.2 120.7 161.4 120.8 161.6 121C167.4 130.7 173.7 127.5 173.8 127.4C174.1 127.2 174.6 127.4 174.7 127.7C174.9 128 174.7 128.5 174.4 128.6C174.3 128.6 167.4 132.1 161.2 122.8C160.5 124.3 159.1 126.7 156.2 128.3C154.2 129.4 152 129.9 149.6 129.9Z" fill="black"/>
<path d="M99.9 68.5C93.7 66.3 88.8 62 81.8 55.2C76.5 50.1 72.3 42.8 67.5 42.4C63.8 42.1 60.7 55.2 62.8 67.8C64.4 77.6 74.8 101.8 74.8 101.8L99.9 68.5Z" fill="url(#paint3_linear_1903_2)"/>
<path opacity="0.2" d="M89.2 71C90.6 70.1 90.6 68.1 89.1 67.2C84 64.1 77.8 57.6 74.1 53.2C69.2 47.4 67.6 57.4 69.7 68.1C70.4 71.8 72.2 75.6 73.9 78.5C75.2 80.8 78.5 81.1 80.1 78.9C82.4 76.1 85.6 73.2 89.2 71Z" fill="white"/>
<path d="M184.5 85.1L99.9 86.9C99.4 86.9 99 86.5 99 86.1C99 85.6 99.4 85.2 99.8 85.2L184.4 83.4C184.9 83.4 185.3 83.8 185.3 84.2C185.3 84.7 185 85.1 184.5 85.1Z" fill="white"/>
<path d="M110.7 105L88.8 105.4L88 85.4L110 84.9L110.7 105Z" fill="white"/>
<path opacity="0.3" d="M101.7 95.2C101.7 96.5 100.7 97.5 99.4001 97.5C98.1001 97.5 97.1001 96.5 97.1001 95.2C97.1001 93.9 98.1001 92.9 99.4001 92.9C100.7 92.9 101.7 93.9 101.7 95.2Z" fill="black"/>
<path opacity="0.2" d="M110.7 103.8L139.3 103.2C141.6 103.2 143.4 101.2 143.3 98.9L142.8 85.1L110 85.8L110.7 103.8Z" fill="white"/>
<path d="M68.7 105.8L88.8 105.4L88 85.4L68 85.8C66.3 85.8 64.9 87.3 65 89L65.5 102.9C65.6 104.6 67 105.9 68.7 105.8Z" fill="white"/>
<path opacity="0.3" d="M68.7 105.8L88.8 105.4L88 85.4L68 85.8C66.3 85.8 64.9 87.3 65 89L65.5 102.9C65.6 104.6 67 105.9 68.7 105.8Z" fill="url(#paint4_linear_1903_2)"/>
<path d="M287.7 267.6C287.2 265.4 286.3 263.6 285.1 262.1C282.5 259.3 279.8 256.7 277 254.1C274.3 251.5 271.5 248.9 268.7 246.4C265.9 243.8 263 241.4 260.2 238.9C254.4 234 248.5 229.2 242.4 224.6C239.6 222.5 236.8 220.5 233.9 218.5C235.2 214.8 234.5 210.6 231.5 207.6L227.3 203.4C226.5 202.6 225.7 202 224.8 201.6C262.4 152.5 258.8 82 213.8 37C164.9 -11.9 85.6 -11.9 36.7 37C-12.2 85.9 -12.2 165.2 36.7 214.1C81.6 259 152.2 262.7 201.3 225.1C201.8 226 202.4 226.8 203.1 227.6L207.3 231.8C210.2 234.7 214.5 235.5 218.2 234.2C220.2 237.1 222.2 239.9 224.3 242.7C228.9 248.8 233.7 254.8 238.6 260.5C241.1 263.4 243.6 266.2 246.1 269C248.6 271.8 251.2 274.6 253.8 277.3C256.4 280 259 282.8 261.8 285.4C263.3 286.6 265.1 287.5 267.3 288C269.5 288.4 272.1 288.5 275.6 287.7C281.2 286.3 285.8 282 287.3 276C288.2 272.4 288.1 269.8 287.7 267.6ZM42.7 208C-2.89994 162.4 -2.89994 88.5 42.7 43C88.3 -2.59996 162.2 -2.59996 207.8 43C253.4 88.6 253.4 162.5 207.8 208C162.2 253.6 88.3 253.6 42.7 208Z" fill="url(#paint5_linear_1903_2)"/>
<path opacity="0.2" d="M287.7 267.6C287.2 265.4 286.3 263.6 285.1 262.1C282.5 259.3 279.8 256.7 277 254.1C274.3 251.5 271.5 248.9 268.7 246.4C265.9 243.8 263 241.4 260.2 238.9C254.4 234 248.5 229.2 242.4 224.6C239.6 222.5 236.8 220.5 233.9 218.5C235.2 214.8 234.5 210.6 231.5 207.6L227.3 203.4C226.5 202.6 225.7 202 224.8 201.6C262.4 152.5 258.8 82 213.8 37C164.9 -11.9 85.6 -11.9 36.7 37C-12.2 85.9 -12.2 165.2 36.7 214.1C81.6 259 152.2 262.7 201.3 225.1C201.8 226 202.4 226.8 203.1 227.6L207.3 231.8C210.2 234.7 214.5 235.5 218.2 234.2C220.2 237.1 222.2 239.9 224.3 242.7C228.9 248.8 233.7 254.8 238.6 260.5C241.1 263.4 243.6 266.2 246.1 269C248.6 271.8 251.2 274.6 253.8 277.3C256.4 280 259 282.8 261.8 285.4C263.3 286.6 265.1 287.5 267.3 288C269.5 288.4 272.1 288.5 275.6 287.7C281.2 286.3 285.8 282 287.3 276C288.2 272.4 288.1 269.8 287.7 267.6ZM42.7 208C-2.89994 162.4 -2.89994 88.5 42.7 43C88.3 -2.59996 162.2 -2.59996 207.8 43C253.4 88.6 253.4 162.5 207.8 208C162.2 253.6 88.3 253.6 42.7 208Z" fill="black"/>
<path opacity="0.3" d="M218.2 234.1L233.8 218.5C233.9 218.5 229.7 230.4 218.2 234.1Z" fill="black"/>
<path d="M242.3 74C240.8 70.6 239.1 67.2 237.4 64L238.3 63.5C240.1 66.8 241.8 70.2 243.3 73.6L242.3 74ZM233 56.6C228 48.8 222.2 41.6 215.7 35L216.5 34.2C223.1 40.8 229 48.1 234 55.9L233 56.6Z" fill="url(#paint6_linear_1903_2)"/>
<path opacity="0.2" d="M242.3 74C240.8 70.6 239.1 67.2 237.4 64L238.3 63.5C240.1 66.8 241.8 70.2 243.3 73.6L242.3 74ZM233 56.6C228 48.8 222.2 41.6 215.7 35L216.5 34.2C223.1 40.8 229 48.1 234 55.9L233 56.6Z" fill="black"/>
</g>
</g>
<defs>
<linearGradient id="paint0_linear_1903_2" x1="168.1" y1="44.6578" x2="168.1" y2="97.7" gradientUnits="userSpaceOnUse">
<stop stop-color="#5828E0"/>
<stop offset="1" stop-color="#E440FF"/>
</linearGradient>
<linearGradient id="paint1_linear_1903_2" x1="121.287" y1="120.296" x2="121.287" y2="242.284" gradientUnits="userSpaceOnUse">
<stop stop-color="#5828E0"/>
<stop offset="1" stop-color="#E440FF"/>
</linearGradient>
<linearGradient id="paint2_linear_1903_2" x1="127.996" y1="62.1077" x2="127.996" y2="167.035" gradientUnits="userSpaceOnUse">
<stop stop-color="#5828E0"/>
<stop offset="1" stop-color="#E440FF"/>
</linearGradient>
<linearGradient id="paint3_linear_1903_2" x1="81.0099" y1="42.395" x2="81.0099" y2="101.8" gradientUnits="userSpaceOnUse">
<stop stop-color="#5828E0"/>
<stop offset="1" stop-color="#E440FF"/>
</linearGradient>
<linearGradient id="paint4_linear_1903_2" x1="76.8975" y1="85.4" x2="76.8975" y2="105.805" gradientUnits="userSpaceOnUse">
<stop stop-color="#5828E0"/>
<stop offset="1" stop-color="#E440FF"/>
</linearGradient>
<linearGradient id="paint5_linear_1903_2" x1="144.01" y1="0.325024" x2="144.01" y2="288.303" gradientUnits="userSpaceOnUse">
<stop stop-color="#5828E0"/>
<stop offset="1" stop-color="#E440FF"/>
</linearGradient>
<linearGradient id="paint6_linear_1903_2" x1="229.5" y1="34.2" x2="229.5" y2="74" gradientUnits="userSpaceOnUse">
<stop stop-color="#5828E0"/>
<stop offset="1" stop-color="#E440FF"/>
</linearGradient>
<clipPath id="clip0_1903_2">
<rect width="288" height="289" fill="white"/>
</clipPath>
</defs>
</svg>
