<svg width="76" height="33" viewBox="0 0 76 33" fill="none" xmlns="http://www.w3.org/2000/svg">
<path d="M2.36932 3.75H5.59375L9.91193 14.2898H10.0824L14.4006 3.75H17.625V18.2955H15.0966V8.30256H14.9616L10.9418 18.2528H9.05256L5.03267 8.28125H4.89773V18.2955H2.36932V3.75Z" fill="white"/>
<path d="M31.4915 11.0227C31.4915 12.59 31.1979 13.9323 30.6108 15.0497C30.0284 16.1624 29.233 17.0147 28.2244 17.6065C27.2206 18.1984 26.0819 18.4943 24.8082 18.4943C23.5346 18.4943 22.3935 18.1984 21.3849 17.6065C20.3812 17.0099 19.5857 16.1553 18.9986 15.0426C18.4162 13.9252 18.125 12.5852 18.125 11.0227C18.125 9.45549 18.4162 8.11553 18.9986 7.00284C19.5857 5.88542 20.3812 5.03078 21.3849 4.43892C22.3935 3.84706 23.5346 3.55114 24.8082 3.55114C26.0819 3.55114 27.2206 3.84706 28.2244 4.43892C29.233 5.03078 30.0284 5.88542 30.6108 7.00284C31.1979 8.11553 31.4915 9.45549 31.4915 11.0227ZM28.8423 11.0227C28.8423 9.91951 28.6695 8.98911 28.3239 8.23153C27.983 7.46922 27.5095 6.89394 26.9034 6.50568C26.2973 6.11269 25.599 5.91619 24.8082 5.91619C24.0175 5.91619 23.3191 6.11269 22.7131 6.50568C22.107 6.89394 21.6312 7.46922 21.2855 8.23153C20.9446 8.98911 20.7741 9.91951 20.7741 11.0227C20.7741 12.1259 20.9446 13.0587 21.2855 13.821C21.6312 14.5786 22.107 15.1539 22.7131 15.5469C23.3191 15.9351 24.0175 16.1293 24.8082 16.1293C25.599 16.1293 26.2973 15.9351 26.9034 15.5469C27.5095 15.1539 27.983 14.5786 28.3239 13.821C28.6695 13.0587 28.8423 12.1259 28.8423 11.0227Z" fill="white"/>
<path d="M33.9826 3.75H36.5962V13.6648H36.7312L43.5707 3.75H45.9357V18.2955H43.3008V8.38778H43.18L36.3192 18.2955H33.9826V3.75ZM41.369 0H43.2937C43.2937 0.828598 42.993 1.50095 42.3917 2.01705C41.7951 2.52841 40.9854 2.78409 39.9627 2.78409C38.9495 2.78409 38.1422 2.52841 37.5408 2.01705C36.9442 1.50095 36.6483 0.828598 36.6531 0H38.5636C38.5636 0.340909 38.6677 0.646307 38.8761 0.916193C39.0891 1.18134 39.4513 1.31392 39.9627 1.31392C40.4646 1.31392 40.8221 1.18134 41.0352 0.916193C41.253 0.651042 41.3642 0.345644 41.369 0Z" fill="white"/>
<path d="M5.86648 19.3693H8.80682C9.94318 19.3693 10.9517 19.6132 11.8324 20.1009C12.7131 20.5885 13.4044 21.2751 13.9062 22.1605C14.4081 23.0412 14.6591 24.0734 14.6591 25.2571C14.6591 26.4124 14.4081 27.4233 13.9062 28.2898C13.4044 29.1562 12.7131 29.831 11.8324 30.3139C10.9517 30.7921 9.94318 31.0312 8.80682 31.0312H5.86648C4.72538 31.0312 3.71212 30.7945 2.8267 30.321C1.94602 29.8428 1.25473 29.1705 0.752841 28.304C0.250947 27.4375 0 26.4242 0 25.2642C0 24.0805 0.253314 23.0483 0.759943 22.1676C1.26657 21.2822 1.96023 20.5956 2.84091 20.108C3.72633 19.6155 4.73485 19.3693 5.86648 19.3693ZM5.86648 21.5994C5.17519 21.5994 4.57623 21.7415 4.0696 22.0256C3.56771 22.3049 3.17945 22.7169 2.90483 23.2614C2.63021 23.8059 2.4929 24.4735 2.4929 25.2642C2.4929 26.0218 2.63021 26.6634 2.90483 27.1889C3.18419 27.7145 3.57718 28.1146 4.08381 28.3892C4.59044 28.6638 5.18466 28.8011 5.86648 28.8011H8.81392C9.50047 28.8011 10.0923 28.6638 10.5895 28.3892C11.0914 28.1098 11.4773 27.7074 11.7472 27.1818C12.0218 26.6515 12.1591 26.0099 12.1591 25.2571C12.1591 24.4759 12.0218 23.813 11.7472 23.2685C11.4773 22.724 11.0914 22.3097 10.5895 22.0256C10.0923 21.7415 9.50047 21.5994 8.81392 21.5994H5.86648ZM8.60795 17.4943V32.892H6.07244V17.4943H8.60795Z" fill="white"/>
<path d="M17.1662 17.75H19.7798V27.6648H19.9148L26.7543 17.75H29.1193V32.2955H26.4844V22.3878H26.3636L19.5028 32.2955H17.1662V17.75Z" fill="white"/>
<path d="M31.0458 32.2955V30.108L31.4577 30.0866C32.0165 30.0535 32.4592 29.8523 32.7859 29.483C33.1173 29.1136 33.3611 28.5194 33.5174 27.7003C33.6784 26.8812 33.7849 25.7827 33.837 24.4048L34.0785 17.75H43.6097V32.2955H41.0316V19.9162H36.5359L36.3086 25.2216C36.2423 26.8125 36.0671 28.1312 35.783 29.1776C35.5037 30.224 35.0444 31.0052 34.4052 31.5213C33.7707 32.0374 32.8877 32.2955 31.756 32.2955H31.0458Z" fill="white"/>
<path d="M49.2653 23.3679H52.9585C54.0711 23.3679 55.0252 23.5502 55.8207 23.9148C56.6209 24.2746 57.234 24.7836 57.6602 25.4418C58.0863 26.0999 58.2994 26.8741 58.2994 27.7642C58.2994 28.6591 58.0863 29.4474 57.6602 30.1293C57.234 30.8063 56.6209 31.3366 55.8207 31.7202C55.0252 32.1037 54.0711 32.2955 52.9585 32.2955H47.511V17.75H50.1531V30.1364H52.9585C53.5456 30.1364 54.0427 30.0251 54.4499 29.8026C54.8571 29.58 55.1649 29.2865 55.3732 28.9219C55.5863 28.5573 55.6928 28.1619 55.6928 27.7358C55.6928 27.1203 55.4561 26.5971 54.9826 26.1662C54.5138 25.7306 53.8391 25.5128 52.9585 25.5128H49.2653V23.3679Z" fill="white"/>
<path d="M59.8615 17.75H63.0859L67.4041 28.2898H67.5746L71.8928 17.75H75.1172V32.2955H72.5888V22.3026H72.4538L68.434 32.2528H66.5447L62.5249 22.2812H62.3899V32.2955H59.8615V17.75Z" fill="white"/>
</svg>
